<svg width="90" height="50" viewBox="0 0 254 256" fill="none" xmlns="http://www.w3.org/2000/svg">
<path d="M115.584 0.366782C110.383 1.199 103.599 3.69564 98.9639 6.37061C92.0105 10.4722 82.5698 21.0532 80.2521 27.3543C79.6867 28.9593 79.6302 29.0187 78.3865 28.0676C62.2186 15.9411 41.4717 17.1299 27.1127 31.0398C18.8026 39.1836 14.5063 49.6457 14.5628 61.8911C14.5628 80.4971 25.869 96.428 43.0545 101.897C47.9727 103.502 55.3218 104.096 59.5616 103.264C61.8229 102.848 63.0666 102.789 63.2927 103.205C63.5188 103.561 64.0841 107.485 64.6494 112.002C65.1582 116.461 66.0062 122.94 66.4584 126.388C66.8542 129.835 67.9848 138.752 68.9458 146.301C73.751 185.059 74.8251 192.786 75.56 194.035C77.1994 196.829 78.7822 196.829 84.2658 193.856C92.9716 189.16 96.3069 188.804 119.259 190.349C124.573 190.706 124.742 190.646 132.261 187.972C143.793 183.81 145.941 183.335 154.93 182.919C162.618 182.562 163.296 182.443 165.445 180.957C166.688 180.125 168.102 178.46 168.667 177.331C169.176 176.142 171.663 164.848 174.15 152.127L178.786 129.063L182.574 129.241C187.605 129.538 195.689 127.993 201.229 125.734C215.588 119.908 226.668 106.474 230.455 90.3053C231.812 84.3015 231.643 72.7694 230.116 66.7061C225.707 49.3485 212.761 35.4386 196.593 30.6831C188.227 28.2459 176.977 28.4837 169.063 31.337C167.367 31.9909 165.84 32.4664 165.614 32.4664C165.445 32.4664 164.653 30.9804 163.975 29.197C159.961 19.0321 151.029 9.3428 141.136 4.52785C133.957 0.96122 123.046 -0.822095 115.584 0.366782ZM124.912 142.497C145.885 144.161 163.127 145.648 163.24 145.707C163.579 146.004 161.996 157.655 161.544 158.19C161.261 158.487 157.53 158.963 153.29 159.141C145.15 159.498 143.68 159.914 125.477 166.928C122.142 168.236 122.029 168.236 107.274 166.81C97.8898 165.918 92.5193 166.572 87.2054 169.187C85.2268 170.138 83.6439 170.614 83.6439 170.317C83.6439 169.544 80.3651 143.686 79.9129 140.714L79.6302 138.693L83.1917 139.049C85.1703 139.228 103.939 140.773 124.912 142.497Z" fill="white"/>
<path d="M245.784 179.745C233.29 192.228 222.549 199.421 210.847 203.106C206.607 204.414 204.685 204.652 198.75 204.711C191.231 204.711 191.514 204.771 173.593 199.48C157.821 194.844 149.115 196.211 141.992 204.533C139.222 207.802 136 214.817 136 217.73C136 219.453 136.339 220.167 137.47 220.999C139.109 222.128 138.996 222.188 143.858 218.562C146.967 216.243 150.755 215.292 154.033 215.887C155.447 216.184 162.004 219.216 168.505 222.604C179.812 228.489 184.56 230.51 190.27 231.818C209.434 236.157 229.785 226.23 242.448 206.435C247.762 198.054 253.585 184.441 253.585 180.221C253.585 178.556 251.493 176 250.08 176C249.741 176 247.819 177.724 245.784 179.745Z" fill="white"/>
<path d="M98.0596 204.791C92.6891 206.039 88.5623 208.298 77.7649 216.025C66.8543 223.813 63.0102 225.893 56.5091 227.676C43.4504 231.184 28.0739 228.568 9.07946 219.592C3.20022 216.798 1.84347 216.501 0.825908 217.809C-1.49187 220.722 0.88244 224.942 10.3231 234.869C20.838 245.926 30.6744 251.989 42.8286 254.842C48.7644 256.209 58.7138 256.091 64.3104 254.486C74.4295 251.632 80.761 247.115 94.0458 233.026C104.165 222.326 106.596 220.543 111.175 220.543C112.645 220.543 115.415 221.078 117.28 221.732C121.068 223.099 122.594 222.743 123.216 220.246C123.781 217.987 122.99 216.501 118.976 212.221C114.736 207.703 111.062 205.504 106.2 204.553C102.299 203.78 102.639 203.78 98.0596 204.791Z" fill="white"/>
</svg>
