<svg width="30" height="30" viewBox="0 0 50 50" fill="none" xmlns="http://www.w3.org/2000/svg">
<path d="M12.7051 12.6266L0 25.2533L0.234375 25.5839C0.351562 25.7712 0.693359 26.0907 0.986328 26.289C1.48438 26.6416 1.55273 26.6526 2.29492 26.6196C2.96875 26.5755 3.17383 26.5204 3.76953 26.1678C4.28711 25.8593 6.98242 23.3472 14.9023 15.7888C20.6445 10.3018 25.3711 5.81747 25.4102 5.81747C25.4492 5.81747 29.8047 10.1916 35.0879 15.5354C40.5371 21.0444 44.9512 25.4296 45.2734 25.65C46.4062 26.4213 47.7246 26.7187 48.5449 26.3992C49.043 26.2119 49.5605 25.8153 49.7949 25.4517L50 25.1211L41.875 16.8245C37.4023 12.252 31.875 6.59975 29.5801 4.2529L25.4102 -7.43866e-05L12.7051 12.6266Z" fill="white"/>
<path d="M39.1602 9.06794V12.4174L41.5527 14.7092C42.8711 15.9653 43.9941 17.012 44.043 17.034C44.1016 17.056 44.1406 14.9516 44.1406 11.3928V5.70743H41.6504H39.1602V9.06794Z" fill="white"/>
<path d="M16.0352 18.1357L6.84573 26.807V37.9683C6.83596 50.2534 6.80666 49.6254 7.43166 49.8788C7.64651 49.9669 9.68752 50 14.0625 50H20.3809L20.4395 45.4606C20.4785 42.9595 20.5078 40.1388 20.5078 39.2023C20.5078 37.7038 20.5274 37.4504 20.7031 37.1419C21.0938 36.4147 21.2012 36.3927 24.4629 36.3927C26.0742 36.3927 27.5586 36.4368 27.7539 36.4808C28.2031 36.591 28.6914 37.0427 28.8672 37.5165C28.9746 37.803 29.0039 39.0591 29.0039 43.885V49.8898H35.3516C42.3633 49.8898 42.1094 49.9119 42.4512 49.1957C42.6172 48.8651 42.627 48.1159 42.6563 37.8801L42.6758 26.9061L34.0723 18.268C29.336 13.5081 25.4004 9.58572 25.3418 9.54164C25.2637 9.48655 21.7871 12.7038 16.0352 18.1357Z" fill="white"/>
</svg>
