<svg width="40" height="40" viewBox="0 0 512 512" fill="none" xmlns="http://www.w3.org/2000/svg">
<path d="M236.7 1.50017C191 8.00017 151.2 37.0002 131 78.3002C122 96.7002 118.3 111.4 116.4 136.3C115.9 142.9 115.4 144.7 113.2 147.2C107.8 153.2 97.9999 151.7 94.4999 144.4C92.9999 141.2 92.7999 139.1 93.3999 131.1C94.7999 110.7 99.8999 90.0002 107.6 73.1002C111.6 64.5002 112 59.2002 109 54.9002C104.9 49.3002 98.6999 49.4002 82.5999 55.4002C41.3999 70.9002 12.0999 105.6 2.29987 150.3C-0.200129 161.7 -0.100129 187.2 2.39987 198.9C10.2999 235.7 32.4999 267.1 62.6999 284.4L69.8999 288.5L69.9999 337.6V386.7L72.2999 390.1C73.5999 392 76.0999 394 77.9999 394.7C82.4999 396.2 427.5 396.5 433.1 395C435 394.4 437.7 392.8 439.1 391.4L441.5 388.8L441.8 338.7L442.1 288.5L449.3 284.3C514 246.6 531.6 159.3 486.8 98.8002C462.1 65.5002 425 46.8002 384 47.1002C377.1 47.1002 369.5 47.5002 367 47.9002L362.5 48.6002L352.6 39.3002C332 19.8002 307.2 7.00017 281.1 2.40017C268.6 0.20017 248.4 -0.19983 236.7 1.50017ZM135.5 236.3C138 238.8 139 240.8 139.5 244.6C141.5 259.8 150.6 277.7 170.5 305.4C176.5 313.7 174.5 322.6 166 325.1C158.5 327.4 154.7 324.1 140.6 303.2C124.2 278.9 114.1 252.4 117.2 241.4C118.5 236.6 123.3 233 128.2 233C131.4 233 132.9 233.7 135.5 236.3ZM263.5 236.3C265.9 238.7 267 240.9 267.5 244.1C267.8 246.5 268 264 267.8 283C267.5 321.8 267.5 321.6 260.2 324.7C257 326 256 326.1 252.6 324.9C250.4 324.1 247.7 322.2 246.6 320.7C244.6 318 244.5 316.5 244.2 283.2C244 264.1 244.2 246.5 244.5 244.1C245.5 237.7 250.3 233 256 233C259.4 233 260.8 233.6 263.5 236.3ZM390.9 235.6C392.6 237 394.3 239.6 394.8 241.4C396.9 248.7 392.5 265 384.1 281.8C375.2 299.4 359.5 321.7 353.8 324.6C349.6 326.8 344.4 325.6 340.8 321.8C336.7 317.4 336.9 311.8 341.5 305.4C361.4 277.7 370.5 259.8 372.5 244.6C373.9 234.3 383.7 229.5 390.9 235.6Z" fill="white"/>
<path d="M76.3 420.6C70.7 423.4 70 426.4 70 449.2C70 472.1 71.1 479 76.1 487.7C82.1 498.2 93.1 506.8 104.5 510.1C108.7 511.3 132.5 511.5 256.5 511.5C396.8 511.5 403.7 511.4 408.8 509.7C425.1 504 436.8 491.6 440.5 475.9C442.6 466.7 442.6 429.2 440.5 425C437.2 418.6 450.6 419 256.3 419C97.8 419 79.2 419.2 76.3 420.6Z" fill="white"/>
</svg>
