<svg width="30" height="30" viewBox="0 0 50 50" fill="none" xmlns="http://www.w3.org/2000/svg">
<path d="M19.7725 0.0762157C16.9438 0.566832 14.5888 1.936 13.0529 3.95551C11.8113 5.56428 11.3378 7.01331 11.3378 9.07846C11.325 11.6456 12.2977 13.7564 14.2688 15.5249C16.2399 17.282 18.6205 18.1492 21.5004 18.1492C24.3802 18.1492 26.7608 17.282 28.7319 15.5249C30.703 13.7678 31.6757 11.6456 31.6757 9.07846C31.6757 7.09318 31.215 5.68979 30.0758 4.13807C28.6423 2.16419 26.6072 0.863485 23.9322 0.213131C23.0619 0.00775719 20.63 -0.0721111 19.7725 0.0762157Z" fill="white"/>
<path d="M18.7871 20.2029C11.0308 21.1499 4.59274 26.1702 1.72572 33.5066C0.893769 35.6402 0.394599 37.7853 0.125815 40.284C-0.0917713 42.4518 -0.219764 42.2008 1.44414 42.9082C8.04853 45.6808 15.7921 47.415 21.5645 47.415C23.5868 47.415 28.4249 46.9929 28.6425 46.7989C28.6681 46.7761 28.4633 46.3539 28.1817 45.8633C26.569 42.9767 26.2106 39.8048 27.145 36.6899C27.5161 35.4349 28.7705 33.2556 29.7432 32.1717C31.4967 30.1978 34.1845 28.5662 36.7828 27.9045C37.2691 27.779 37.6915 27.6534 37.7299 27.6306C37.8835 27.4823 35.9636 25.5427 34.6453 24.5044C32.8918 23.1466 30.5624 21.8687 28.5401 21.1842C25.6219 20.1801 21.9741 19.815 18.7871 20.2029Z" fill="white"/>
<path d="M37.6447 29.7181C35.0219 30.1193 32.4941 31.5782 30.8881 33.6116C27.8376 37.5052 28.0277 42.8031 31.3537 46.5143C33.6629 49.0857 37.5117 50.4261 40.9612 49.879C45.7127 49.113 49.2288 45.6754 49.9035 41.1161C50.4262 37.5873 48.7917 33.8396 45.7983 31.6694C43.47 29.9916 40.5241 29.2804 37.6447 29.7181ZM41.1608 32.7089C42.1111 32.9642 42.7573 33.2287 43.47 33.6846C47.5183 36.2195 48.1265 41.6724 44.7244 44.9459C41.3128 48.2103 35.6301 47.6267 32.9882 43.7423C32.1425 42.5021 31.8004 41.3806 31.8004 39.794C31.8004 38.2074 32.1425 37.0858 32.9787 35.8548C34.1096 34.1952 35.8676 33.0463 37.9298 32.6269C38.69 32.4718 40.4196 32.5174 41.1608 32.7089Z" fill="white"/>
<path d="M38.6385 34.8099C37.8217 35.1634 37.5755 35.699 37.5755 37.0702V38.0664L36.3559 38.1092C35.0355 38.1414 34.7782 38.2378 34.2858 38.8805C33.9614 39.2983 33.9614 40.3052 34.2858 40.723C34.7782 41.3657 35.0355 41.4621 36.3447 41.4942L37.5531 41.5371L37.5979 42.694C37.6315 43.9473 37.7322 44.1936 38.4035 44.665C38.8399 44.9756 39.8917 44.9756 40.3281 44.665C40.9995 44.1936 41.1002 43.9473 41.1337 42.694L41.1785 41.5371L42.387 41.4942C43.4052 41.4728 43.6514 41.4299 43.9087 41.2371C44.5017 40.8194 44.6808 40.4766 44.6808 39.8017C44.6808 39.1269 44.5017 38.7841 43.9087 38.3663C43.6514 38.1735 43.4052 38.1307 42.387 38.1092L41.1785 38.0664L41.1337 36.9095C41.1002 35.6562 40.9995 35.4098 40.3505 34.9492C39.9701 34.6814 39.0861 34.6064 38.6385 34.8099Z" fill="white"/>
</svg>
