<svg width="30" height="30" viewBox="0 0 50 50" fill="none" xmlns="http://www.w3.org/2000/svg">
<path d="M23.4338 0.0382919C22.6224 0.0969772 21.0387 0.292587 20.6966 0.380611C20.2957 0.478416 19.8852 0.869637 19.719 1.29998C19.631 1.52493 19.6408 1.77923 19.7287 2.3465C19.9927 3.97985 19.367 5.50561 18.0375 6.49344C16.6591 7.51062 14.8505 7.58886 13.3352 6.69883C13.0908 6.55212 12.6118 6.12178 12.2697 5.74034C11.9275 5.3589 11.5365 4.98724 11.3898 4.909C10.9695 4.69382 10.4122 4.73295 9.98208 5.02636C8.69165 5.90661 6.3943 8.16591 5.16253 9.78948C4.05784 11.237 4.08717 11.7358 5.33849 12.7334C7.96823 14.8362 7.57719 18.6409 4.58574 20.059C3.94053 20.3622 3.90142 20.372 2.51323 20.372C0.949078 20.3818 0.792662 20.4209 0.450503 20.9784C-0.0285198 21.7413 -0.155608 25.7709 0.21588 28.3725C0.382071 29.5364 0.421175 29.644 0.802438 30.0058C1.05661 30.2503 1.09572 30.2503 2.64032 30.2503C4.21426 30.2503 4.22403 30.2503 4.8888 30.5633C7.11772 31.6196 8.02689 34.2506 6.89287 36.3925C6.60937 36.9304 6.22811 37.3412 5.27006 38.1921C4.93768 38.4855 4.83992 38.6518 4.79104 38.9746C4.76171 39.1995 4.76171 39.4929 4.80081 39.6299C4.98656 40.3732 7.98778 43.5127 9.83544 44.9016C10.7348 45.5764 10.8717 45.6547 11.2725 45.6547C11.8884 45.6547 12.1915 45.4688 12.7291 44.7255C13.7361 43.3563 15.2416 42.701 16.8741 42.9259C18.2428 43.1215 19.5039 44.0898 20.1393 45.4297C20.4424 46.085 20.4522 46.1241 20.4522 47.513C20.4522 49.0485 20.5206 49.2833 21.0192 49.6158C21.899 50.1928 28.6933 50.095 29.7296 49.4886C29.886 49.3908 30.1108 49.1659 30.2184 48.9898C30.3846 48.6964 30.3943 48.5693 30.3161 47.6695C30.1988 46.3491 30.2868 45.7818 30.7072 44.9211C31.8705 42.5738 34.9793 41.8598 37.0811 43.4736C37.2766 43.6203 37.6774 44.0409 37.9609 44.4028C38.567 45.1559 38.9874 45.3515 39.6229 45.1754C40.796 44.8527 45.4689 39.982 45.684 38.867C45.7719 38.3682 45.5666 37.8694 45.117 37.5075C43.8852 36.5294 43.4844 36.0404 43.1911 35.1602C42.8 34.0256 42.8587 32.9987 43.3671 31.913C43.8559 30.8567 44.7748 30.0352 45.8697 29.6831C46.4074 29.507 47.4925 29.4483 48.1475 29.5559C48.4701 29.6146 48.6461 29.5853 48.9882 29.419C49.6237 29.1158 49.7801 28.705 49.9365 27.0228C50.1223 24.8515 49.8779 21.0762 49.4966 20.3427C49.1544 19.6776 48.6559 19.5015 47.6098 19.658C44.7357 20.1079 42.2526 17.6922 42.6925 14.8754C42.8783 13.6626 43.3084 12.9877 44.6673 11.7554C45.1561 11.3152 45.2929 10.9045 45.1365 10.3568C44.8237 9.25155 40.1508 4.71339 38.9679 4.38085C38.6257 4.28304 38.0685 4.39063 37.8045 4.6058C37.7165 4.66448 37.4428 4.99702 37.1789 5.32956C36.7585 5.87727 36.4945 6.10222 35.7418 6.5619C35.5951 6.64993 35.2139 6.78686 34.8913 6.8651C32.9068 7.38347 30.8929 6.49344 29.9935 4.70361C29.6025 3.93094 29.4852 3.23653 29.5438 2.18023C29.6025 1.30976 29.5829 1.17283 29.407 0.889198C29.2994 0.71315 29.1039 0.507759 28.967 0.419735C28.5173 0.116539 25.4477 -0.0888557 23.4338 0.0382919ZM26.6599 14.3961C34.3927 15.648 38.2347 24.3625 33.9528 30.935C31.02 35.434 25.0957 37.038 20.2371 34.6418C13.6676 31.4044 12.2208 22.6509 17.4021 17.4476C18.6436 16.1957 19.9243 15.3937 21.6057 14.8362C23.2579 14.2787 24.998 14.1223 26.6599 14.3961Z" fill="white"/>
<path d="M23.3459 17.2422C21.7622 17.5943 20.4131 18.3571 19.2596 19.5699C18.4091 20.4697 17.8714 21.3598 17.451 22.5725C17.148 23.4626 17.1382 23.5702 17.1284 24.9688C17.1284 26.2402 17.1577 26.5337 17.3533 27.1694C18.4482 30.6806 21.4592 32.9497 25.0274 32.9399C27.2563 32.9301 29.1431 32.1183 30.7268 30.4752C32.0661 29.0864 32.8091 27.3748 32.8971 25.448C33.0046 23.0322 32.3007 21.1837 30.6193 19.4819C29.407 18.2593 28.2926 17.6334 26.6111 17.2422C25.8193 17.0563 24.1965 17.0661 23.3459 17.2422Z" fill="white"/>
</svg>
