<svg width="30" height="30" viewBox="0 0 50 50" fill="none" xmlns="http://www.w3.org/2000/svg">
<path d="M1.16762 0.167709C0.65493 0.368587 0.129736 0.937752 0.0422031 1.38416C0.00468924 1.58503 -0.00781539 10.7363 0.00468924 21.7401L0.0422031 41.7389L0.3048 42.0402C0.442351 42.2076 0.717453 42.4531 0.905023 42.5759C1.24265 42.8103 1.36769 42.8103 11.1838 42.8437C16.6483 42.8549 21.1125 42.8549 21.1125 42.8326C21.1125 42.8103 20.975 42.4308 20.8124 41.9956C20.2122 40.4443 20.0496 39.4734 20.0496 37.5092C20.0496 35.4781 20.2247 34.496 20.8874 32.822C23.2383 26.8737 29.6282 22.9789 36.5932 23.2467L37.9938 23.3025V16.852C37.9938 12.6446 37.9437 10.301 37.8687 10.089C37.6936 9.67607 27.2898 0.368587 26.7771 0.167709C26.1894 -0.0554924 1.74283 -0.0554924 1.16762 0.167709ZM23.0632 3.87284C23.726 4.30809 23.926 4.66521 23.926 5.36829C23.926 6.07138 23.726 6.4285 23.0632 6.86374C22.7256 7.08694 22.563 7.0981 16.2607 7.13158C11.9466 7.1539 9.64576 7.13158 9.33314 7.0423C8.07018 6.71866 7.58249 5.16741 8.44531 4.24113C9.08305 3.57153 8.93299 3.58268 16.1357 3.61617C22.563 3.63848 22.7256 3.63848 23.0632 3.87284ZM23.0632 11.0153C23.726 11.4505 23.926 11.8076 23.926 12.5107C23.926 13.2138 23.726 13.5709 23.0632 14.0062C22.7256 14.2294 22.563 14.2405 16.2607 14.274C11.9466 14.2963 9.64576 14.274 9.33314 14.1847C8.07018 13.8611 7.58249 12.3098 8.44531 11.3836C9.08305 10.714 8.93299 10.7251 16.1357 10.7586C22.563 10.7809 22.7256 10.7809 23.0632 11.0153ZM28.7778 10.8814C30.0658 11.3612 30.3784 12.8567 29.3781 13.7495C27.9775 15.0106 25.6767 13.8834 26.0393 12.1201C26.2644 11.0711 27.6399 10.4461 28.7778 10.8814ZM23.0632 18.1577C23.726 18.593 23.926 18.9501 23.926 19.6532C23.926 20.3562 23.726 20.7134 23.0632 21.1486C22.7256 21.3718 22.563 21.383 16.2607 21.4164C11.9466 21.4388 9.64576 21.4164 9.33314 21.3272C8.07018 21.0035 7.58249 19.4523 8.44531 18.526C9.08305 17.8564 8.93299 17.8675 16.1357 17.901C22.563 17.9233 22.7256 17.9233 23.0632 18.1577ZM28.7778 18.0238C30.0658 18.5037 30.3784 19.9991 29.3781 20.8919C27.9775 22.153 25.6767 21.0258 26.0393 19.2626C26.2644 18.2135 27.6399 17.5885 28.7778 18.0238Z" fill="white"/>
<path d="M33.7419 25.177C30.2906 25.6681 26.9644 27.4537 24.8511 29.9424C20.8371 34.7077 21.0872 41.1917 25.4638 45.7338C28.5025 48.881 33.5668 50.5215 38.106 49.8519C44.3583 48.9144 48.985 44.7071 49.8729 39.1271C50.5606 34.8081 48.4098 30.2214 44.4709 27.5653C41.4072 25.5118 37.5308 24.6413 33.7419 25.177ZM38.3686 28.8375C39.6191 29.15 40.4694 29.4736 41.4072 30.0316C46.7342 33.1341 47.5345 39.8078 43.0579 43.8143C38.5687 47.8096 31.0909 47.0954 27.6146 42.3412C26.5017 40.8234 26.0516 39.4507 26.0516 37.5089C26.0516 35.567 26.5017 34.1943 27.6021 32.6877C29.0902 30.6566 31.4035 29.2504 34.117 28.7371C35.1174 28.5474 37.3933 28.6032 38.3686 28.8375Z" fill="white"/>
<path d="M35.1802 32.3079C34.2674 32.6762 33.9923 33.2342 33.9923 34.6627V35.7005L32.6293 35.7452C31.1537 35.7787 30.8661 35.8791 30.3159 36.5487C29.9533 36.984 29.9533 38.033 30.3159 38.4682C30.8661 39.1378 31.1537 39.2383 32.6168 39.2718L33.9673 39.3164L34.0173 40.5217C34.0548 41.8274 34.1673 42.0841 34.9176 42.5751C35.4053 42.8988 36.5807 42.8988 37.0684 42.5751C37.8187 42.0841 37.9312 41.8274 37.9688 40.5217L38.0188 39.3164L39.3693 39.2718C40.5072 39.2494 40.7823 39.2048 41.0699 39.0039C41.7326 38.5687 41.9327 38.2116 41.9327 37.5085C41.9327 36.8054 41.7326 36.4483 41.0699 36.013C40.7823 35.8121 40.5072 35.7675 39.3693 35.7452L38.0188 35.7005L37.9688 34.4953C37.9312 33.1895 37.8187 32.9329 37.0934 32.453C36.6683 32.174 35.6804 32.0959 35.1802 32.3079Z" fill="white"/>
</svg>
