<svg width="600" height="400" viewBox="0 0 600 400" fill="none" xmlns="http://www.w3.org/2000/svg">
<path d="M292.584 0.366782C287.383 1.199 280.599 3.69564 275.964 6.37061C269.01 10.4722 259.57 21.0532 257.252 27.3543C256.686 28.9593 256.63 29.0187 255.386 28.0676C239.218 15.9411 218.471 17.1299 204.112 31.0398C195.802 39.1836 191.506 49.6457 191.563 61.8911C191.563 80.4971 202.869 96.428 220.054 101.897C224.972 103.502 232.322 104.096 236.561 103.264C238.823 102.848 240.066 102.789 240.292 103.205C240.519 103.561 241.084 107.485 241.649 112.002C242.158 116.461 243.006 122.94 243.458 126.388C243.854 129.835 244.985 138.752 245.946 146.301C250.751 185.059 251.825 192.786 252.56 194.035C254.199 196.829 255.782 196.829 261.266 193.856C269.971 189.16 273.307 188.804 296.258 190.349C301.572 190.706 301.742 190.646 309.261 187.972C320.793 183.81 322.941 183.335 331.93 182.919C339.618 182.562 340.296 182.443 342.444 180.957C343.688 180.125 345.101 178.46 345.667 177.331C346.175 176.142 348.663 164.848 351.15 152.127L355.786 129.063L359.573 129.241C364.605 129.538 372.688 127.993 378.229 125.734C392.587 119.908 403.668 106.474 407.455 90.3053C408.812 84.3015 408.642 72.7694 407.116 66.7061C402.707 49.3485 389.761 35.4386 373.593 30.6831C365.226 28.2459 353.977 28.4837 346.062 31.337C344.366 31.9909 342.84 32.4664 342.614 32.4664C342.444 32.4664 341.653 30.9804 340.975 29.197C336.961 19.0321 328.029 9.3428 318.136 4.52785C310.956 0.96122 300.046 -0.822095 292.584 0.366782ZM301.911 142.497C322.885 144.161 340.127 145.648 340.24 145.707C340.579 146.004 338.996 157.655 338.544 158.19C338.261 158.487 334.53 158.963 330.29 159.141C322.15 159.498 320.68 159.914 302.477 166.928C299.141 168.236 299.028 168.236 284.274 166.81C274.89 165.918 269.519 166.572 264.205 169.187C262.227 170.138 260.644 170.614 260.644 170.317C260.644 169.544 257.365 143.686 256.913 140.714L256.63 138.693L260.191 139.049C262.17 139.228 280.938 140.773 301.911 142.497Z" fill="black"/>
<path d="M592.199 266.854C579.705 279.337 568.964 286.53 557.262 290.215C553.022 291.523 551.1 291.761 545.165 291.82C537.646 291.82 537.929 291.879 520.008 286.589C504.236 281.952 495.53 283.32 488.407 291.642C485.637 294.911 482.415 301.925 482.415 304.838C482.415 306.562 482.754 307.275 483.885 308.108C485.524 309.237 485.411 309.297 490.273 305.67C493.382 303.352 497.17 302.401 500.448 302.995C501.862 303.293 508.419 306.324 514.92 309.713C526.227 315.598 530.975 317.619 536.685 318.926C555.849 323.266 576.2 313.339 588.863 293.544C594.177 285.162 600 271.55 600 267.329C600 265.665 597.908 263.109 596.495 263.109C596.156 263.109 594.234 264.833 592.199 266.854Z" fill="black"/>
<path d="M98.0596 349.005C92.6891 350.253 88.5623 352.512 77.7649 360.24C66.8543 368.027 63.0102 370.107 56.5091 371.891C43.4504 375.398 28.0739 372.782 9.07946 363.806C3.20022 361.013 1.84347 360.715 0.825908 362.023C-1.49187 364.936 0.88244 369.156 10.3231 379.084C20.838 390.14 30.6744 396.203 42.8286 399.057C48.7644 400.424 58.7138 400.305 64.3104 398.7C74.4295 395.847 80.761 391.329 94.0458 377.241C104.165 366.541 106.596 364.758 111.175 364.758C112.645 364.758 115.415 365.293 117.28 365.946C121.068 367.314 122.594 366.957 123.216 364.46C123.781 362.201 122.99 360.715 118.976 356.435C114.736 351.918 111.062 349.718 106.2 348.767C102.299 347.994 102.639 347.994 98.0596 349.005Z" fill="black"/>
<path d="M52.1046 324.351L64.0051 322.72C69.5844 321.955 73.4977 320.302 75.7449 317.76C78.02 315.181 78.8857 311.908 78.342 307.941C77.6922 303.2 75.7709 299.849 72.5779 297.888C69.3805 295.895 64.6857 295.323 58.4936 296.172C56.5908 296.432 55.0589 296.642 53.8979 296.801C52.7369 296.961 51.8016 297.089 51.0921 297.186C50.3826 297.283 49.8366 297.375 49.454 297.46C49.0992 297.508 48.7628 297.571 48.4447 297.647L52.1046 324.351ZM72.347 275.348C72.0642 273.284 71.4941 271.522 70.6369 270.062C69.8076 268.566 68.6266 267.381 67.094 266.506C65.5936 265.628 63.7276 265.079 61.4961 264.859C59.2602 264.607 56.6103 264.69 53.5465 265.11C51.9662 265.327 50.6322 265.543 49.5446 265.757C48.4525 265.94 47.54 266.114 46.807 266.28C46.1019 266.41 45.542 266.52 45.1271 266.609C44.7446 266.695 44.4404 266.753 44.2146 266.784L47.6093 291.552C48.9771 291.463 50.3449 291.374 51.7127 291.285C53.1083 291.16 54.5317 290.998 55.983 290.799C58.7565 290.419 61.2206 289.818 63.3752 288.997C65.5576 288.139 67.3499 287.072 68.752 285.796C70.182 284.483 71.2058 282.962 71.8233 281.235C72.473 279.503 72.6476 277.541 72.347 275.348ZM34.5009 276.099C34.0942 273.132 33.518 270.845 32.7721 269.239C32.215 269.25 31.5956 269.285 30.914 269.346C30.2601 269.37 29.5623 269.433 28.8205 269.534C27.8208 269.671 26.777 269.847 25.6894 270.062C24.5973 270.244 23.5374 270.423 22.5098 270.596L21.754 265.081C26.0238 263.872 30.8618 262.732 36.268 261.663C41.7019 260.557 47.9342 259.522 54.9649 258.558C63.4145 257.4 69.9639 258.08 74.6131 260.597C79.2901 263.077 82.0529 267.413 82.9016 273.605C83.1668 275.54 83.064 277.427 82.5932 279.266C82.1223 281.105 81.3369 282.806 80.237 284.37C79.1693 285.929 77.8126 287.298 76.167 288.476C74.5214 289.654 72.6565 290.551 70.5721 291.165C81.6072 291.131 87.8099 296.113 89.1802 306.11C89.5868 309.078 89.4823 311.671 88.8666 313.891C88.2787 316.075 87.2919 317.984 85.9061 319.62C84.5203 321.255 82.7883 322.643 80.7102 323.782C78.6277 324.889 76.3251 325.828 73.8025 326.601C71.2799 327.374 68.5762 328.024 65.6913 328.551C62.802 329.045 59.8416 329.5 56.8101 329.916C52.6175 330.49 48.496 331.105 44.4457 331.758C40.4321 332.44 36.3445 333.181 32.1828 333.981L31.2546 327.209L35.56 326.618C36.4953 326.49 37.38 326.353 38.2141 326.205C39.0482 326.058 39.8045 325.823 40.4831 325.5C40.8179 324.107 40.8085 322.121 40.4548 319.541L34.5009 276.099ZM151.143 291.457C151.736 295.779 151.564 299.68 150.628 303.159C149.72 306.602 148.255 309.579 146.233 312.091C144.212 314.602 141.731 316.634 138.789 318.187C135.843 319.708 132.629 320.707 129.146 321.185C125.534 321.68 122.084 321.561 118.797 320.829C115.542 320.092 112.6 318.77 109.973 316.863C107.379 314.952 105.197 312.458 103.428 309.382C101.659 306.306 100.488 302.671 99.9132 298.479C99.343 294.319 99.4958 290.519 100.372 287.081C101.248 283.642 102.678 280.653 104.663 278.114C106.675 275.538 109.148 273.442 112.08 271.824C115.045 270.202 118.334 269.143 121.946 268.648C125.525 268.158 128.961 268.295 132.253 269.059C135.545 269.824 138.49 271.178 141.09 273.122C143.684 275.033 145.866 277.527 147.635 280.603C149.404 283.679 150.573 287.297 151.143 291.457ZM110.985 296.912C111.966 304.072 113.85 309.186 116.636 312.254C119.454 315.317 123.363 316.507 128.362 315.822C130.974 315.463 133.14 314.723 134.859 313.6C136.61 312.473 137.946 310.959 138.869 309.059C139.791 307.158 140.331 304.866 140.489 302.183C140.68 299.496 140.536 296.41 140.059 292.927C139.113 286.026 137.228 281.027 134.405 277.931C131.61 274.799 127.697 273.577 122.666 274.267C120.086 274.62 117.939 275.375 116.224 276.529C114.506 277.652 113.185 279.164 112.263 281.065C111.34 282.965 110.782 285.243 110.587 287.898C110.392 290.554 110.525 293.558 110.985 296.912ZM231.28 273.476C230.917 270.831 230.49 268.672 229.998 266.998C229.501 265.292 228.894 263.979 228.176 263.059C227.459 262.138 226.59 261.551 225.569 261.297C224.544 261.01 223.306 260.966 221.855 261.165C220.146 261.399 218.575 261.927 217.143 262.747C215.739 263.531 214.486 264.458 213.385 265.529C212.315 266.596 211.42 267.737 210.7 268.953C210.007 270.132 209.517 271.234 209.231 272.259L212.605 296.883C212.8 298.302 212.994 299.474 213.186 300.401C213.374 301.295 213.702 302.006 214.168 302.533C214.667 303.056 215.36 303.438 216.247 303.678C217.162 303.881 218.409 303.989 219.988 304.003L220.987 308.055C219.026 308.127 216.988 308.242 214.874 308.4C212.764 308.591 210.645 308.832 208.517 309.123C206.55 309.393 204.653 309.702 202.828 310.051C201.036 310.395 199.332 310.793 197.718 311.244L197.348 307.106C198.805 306.709 199.922 306.342 200.697 306.006C201.468 305.638 202.016 305.201 202.341 304.696C202.666 304.192 202.812 303.58 202.779 302.862C202.747 302.144 202.655 301.236 202.505 300.14L199.448 277.839C199.082 275.162 198.652 272.986 198.16 271.312C197.695 269.602 197.088 268.289 196.338 267.373C195.621 266.453 194.736 265.868 193.683 265.618C192.662 265.363 191.426 265.335 189.975 265.534C188.459 265.742 186.983 266.24 185.547 267.028C184.143 267.812 182.874 268.742 181.74 269.817C180.606 270.893 179.663 272.04 178.91 273.261C178.153 274.449 177.665 275.567 177.448 276.615L180.829 301.287C181.024 302.706 181.215 303.863 181.403 304.757C181.592 305.651 181.903 306.364 182.337 306.896C182.804 307.423 183.448 307.812 184.271 308.06C185.089 308.277 186.239 308.398 187.722 308.425L188.672 312.484C186.807 312.542 184.834 312.649 182.752 312.803C180.707 312.984 178.621 313.221 176.492 313.513C174.557 313.778 172.693 314.083 170.9 314.427C169.108 314.771 167.453 315.162 165.935 315.6L165.517 311.468C167.006 311.067 168.136 310.682 168.907 310.314C169.706 309.909 170.25 309.44 170.538 308.907C170.854 308.338 170.992 307.662 170.95 306.88C170.909 306.097 170.81 305.141 170.656 304.012L166.465 273.439C166.377 272.794 166.254 272.137 166.097 271.468C165.972 270.796 165.805 270.178 165.596 269.615C164.401 269.286 162.981 269.234 161.337 269.459L156.644 270.103L156.008 265.459C156.381 265.309 156.949 265.132 157.709 264.93C158.498 264.69 159.402 264.451 160.42 264.213C161.439 263.975 162.541 263.742 163.725 263.514C164.91 263.286 166.082 263.092 167.243 262.933C168.791 262.721 170.286 262.598 171.727 262.565C173.164 262.499 174.358 262.582 175.31 262.813L176.152 268.957C178.645 266.052 181.289 263.768 184.084 262.103C186.906 260.402 190.139 259.302 193.784 258.803C200.331 257.905 204.898 260.187 207.487 265.648C208.141 264.671 208.965 263.605 209.956 262.451C210.944 261.264 212.122 260.15 213.49 259.108C214.891 258.062 216.505 257.134 218.333 256.325C220.156 255.484 222.261 254.9 224.648 254.572C229.614 253.892 233.426 254.618 236.084 256.751C238.738 258.851 240.425 262.53 241.145 267.787L244.321 290.959C244.573 292.797 244.871 294.366 245.213 295.666C245.551 296.934 245.899 298.037 246.258 298.973L253.224 298.018L254.298 302.258C252.678 302.907 250.801 303.476 248.667 303.966C246.565 304.451 244.208 304.873 241.595 305.231C240.886 305.328 240.151 305.363 239.392 305.335C238.669 305.336 237.998 305.231 237.377 305.02C236.753 304.777 236.211 304.424 235.754 303.961C235.324 303.462 235.049 302.776 234.93 301.906C234.713 300.325 234.547 298.755 234.432 297.193C234.349 295.628 234.168 293.829 233.889 291.797L231.28 273.476ZM316.548 222.46C318.871 222.142 321.118 221.998 323.291 222.029C325.496 222.055 327.537 222.203 329.413 222.471C331.286 222.707 332.955 223.021 334.421 223.411C335.888 223.802 337.059 224.2 337.936 224.605L338.577 238.268L332.626 239.083C331.524 237.033 330.445 235.275 329.39 233.81C328.331 232.312 327.166 231.125 325.896 230.247C324.658 229.366 323.264 228.785 321.714 228.504C320.16 228.191 318.334 228.179 316.238 228.466C311.981 229.05 308.386 230.265 305.452 232.113C302.55 233.956 300.249 236.342 298.547 239.269C296.841 242.164 295.747 245.567 295.264 249.477C294.781 253.388 294.865 257.713 295.515 262.454C296.116 266.84 297.164 270.771 298.659 274.246C300.186 277.717 302.11 280.607 304.431 282.917C306.784 285.223 309.509 286.887 312.606 287.908C315.735 288.925 319.219 289.17 323.057 288.644C325.895 288.255 328.478 287.688 330.807 286.941C333.136 286.195 335.204 285.222 337.011 284.021L335.473 272.798C335.31 271.605 335.106 270.483 334.864 269.432C334.617 268.348 334.309 267.421 333.94 266.65C333.196 266.49 332.381 266.421 331.497 266.443C330.645 266.461 329.703 266.541 328.671 266.683L322.963 267.465L322.247 262.24C322.791 262.133 323.475 261.973 324.301 261.762C325.158 261.546 326.241 261.299 327.55 261.021C328.859 260.743 330.445 260.443 332.307 260.122C334.196 259.765 336.447 259.407 339.059 259.049C339.833 258.943 340.64 258.832 341.478 258.717C342.317 258.603 343.206 258.497 344.145 258.401C344.293 259.958 344.426 261.287 344.544 262.388C344.658 263.457 344.751 264.38 344.825 265.159C344.894 265.905 344.96 266.504 345.022 266.955C345.084 267.407 345.135 267.778 345.175 268.068L347.508 285.096C344.936 287.42 341.655 289.496 337.667 291.324C333.679 293.152 329.073 294.424 323.848 295.14C318.914 295.816 314.225 295.769 309.783 294.998C305.336 294.195 301.337 292.591 297.788 290.186C294.234 287.749 291.253 284.461 288.846 280.322C286.439 276.184 284.824 271.115 284.002 265.116C283.136 258.795 283.269 253.175 284.402 248.256C285.53 243.304 287.511 239.057 290.344 235.514C293.205 231.935 296.853 229.069 301.29 226.917C305.722 224.733 310.808 223.247 316.548 222.46ZM403.665 256.848C404.258 261.169 404.086 265.07 403.15 268.55C402.242 271.992 400.777 274.97 398.756 277.481C396.734 279.992 394.253 282.024 391.311 283.577C388.366 285.098 385.151 286.097 381.668 286.575C378.056 287.07 374.606 286.951 371.319 286.219C368.064 285.482 365.123 284.16 362.496 282.253C359.901 280.342 357.719 277.848 355.95 274.772C354.182 271.696 353.01 268.062 352.435 263.869C351.865 259.709 352.018 255.909 352.894 252.471C353.77 249.032 355.2 246.043 357.185 243.504C359.197 240.929 361.67 238.832 364.602 237.214C367.567 235.592 370.856 234.534 374.468 234.039C378.047 233.548 381.483 233.685 384.775 234.449C388.067 235.214 391.013 236.568 393.612 238.512C396.207 240.423 398.388 242.917 400.157 245.993C401.926 249.069 403.095 252.687 403.665 256.848ZM363.507 262.302C364.488 269.462 366.372 274.576 369.158 277.644C371.976 280.708 375.885 281.897 380.884 281.212C383.496 280.854 385.662 280.113 387.381 278.991C389.132 277.863 390.469 276.35 391.391 274.449C392.313 272.548 392.853 270.256 393.011 267.573C393.202 264.886 393.058 261.801 392.581 258.318C391.635 251.416 389.75 246.417 386.928 243.321C384.133 240.189 380.22 238.967 375.188 239.657C372.608 240.01 370.461 240.765 368.747 241.92C367.028 243.042 365.707 244.554 364.785 246.455C363.862 248.355 363.304 250.633 363.109 253.289C362.915 255.944 363.047 258.948 363.507 262.302ZM422.312 263.804C422.738 265.717 423.118 267.406 423.45 268.872C423.778 270.306 424.115 271.689 424.462 273.021C426.015 273.564 427.751 273.885 429.67 273.983C431.622 274.077 434 273.932 436.806 273.547C438.548 273.309 440.021 272.909 441.226 272.35C442.426 271.758 443.381 271.053 444.09 270.233C444.799 269.413 445.285 268.525 445.548 267.568C445.811 266.612 445.872 265.618 445.731 264.586C445.594 263.587 445.244 262.715 444.682 261.97C444.12 261.226 443.374 260.572 442.442 260.01C441.543 259.443 440.475 258.965 439.239 258.576C437.999 258.155 436.631 257.767 435.137 257.413L430.758 256.387C428.041 255.741 425.653 255.099 423.594 254.461C421.535 253.824 419.786 253.045 418.346 252.125C416.901 251.173 415.757 250.016 414.913 248.653C414.069 247.29 413.503 245.56 413.216 243.464C412.915 241.271 413.111 239.223 413.803 237.322C414.491 235.387 415.635 233.67 417.237 232.169C418.838 230.668 420.883 229.402 423.37 228.371C425.889 227.336 428.794 226.593 432.083 226.142C435.502 225.673 438.511 225.573 441.11 225.841C443.738 226.073 445.807 226.545 447.317 227.258C447.37 227.645 447.39 228.266 447.376 229.122C447.357 229.946 447.31 230.922 447.235 232.05C447.187 233.14 447.121 234.332 447.035 235.625C446.982 236.914 446.928 238.203 446.875 239.492L441.925 239.332C441.661 237.89 441.415 236.576 441.187 235.392C440.959 234.207 440.758 233.217 440.583 232.419C439.127 231.863 437.563 231.601 435.892 231.633C434.22 231.665 432.304 231.829 430.143 232.125C427.015 232.554 424.807 233.464 423.519 234.856C422.232 236.249 421.729 237.977 422.012 240.041C422.18 241.266 422.584 242.295 423.224 243.127C423.863 243.96 424.665 244.655 425.629 245.213C426.625 245.766 427.757 246.235 429.025 246.62C430.321 246.968 431.696 247.289 433.149 247.583L438.322 248.648C440.994 249.202 443.331 249.834 445.334 250.545C447.333 251.224 449.022 252.044 450.403 253.005C451.783 253.966 452.856 255.084 453.622 256.359C454.421 257.629 454.933 259.087 455.158 260.732C455.516 263.344 455.312 265.688 454.545 267.765C453.778 269.841 452.564 271.65 450.902 273.192C449.236 274.702 447.174 275.954 444.714 276.948C442.287 277.938 439.59 278.636 436.623 279.043C434.688 279.308 432.717 279.43 430.71 279.41C428.735 279.385 426.846 279.266 425.043 279.053C423.267 278.803 421.63 278.486 420.131 278.1C418.661 277.677 417.466 277.233 416.548 276.767L417.195 263.865L422.312 263.804ZM466.951 213.724C466.922 213.038 466.968 212.293 467.088 211.488C467.235 210.646 467.394 209.885 467.563 209.205L468.116 206.763L474.501 205.888L476.643 221.513L492.22 219.378L492.565 221.894C492.666 222.636 492.684 223.241 492.617 223.71C492.545 224.147 492.38 224.499 492.12 224.764C491.893 225.025 491.558 225.219 491.116 225.345C490.705 225.467 490.194 225.57 489.581 225.654L477.439 227.318L481.37 256.005C481.636 257.94 482.022 259.563 482.53 260.873C483.071 262.179 483.689 263.212 484.384 263.971C485.112 264.725 485.938 265.236 486.861 265.504C487.781 265.739 488.773 265.784 489.837 265.638C490.192 265.59 490.59 265.502 491.033 265.376C491.503 265.213 491.939 265.038 492.341 264.852C492.807 264.656 493.271 264.445 493.733 264.217C493.716 263.135 493.699 262.053 493.682 260.971C493.683 260.018 493.659 259.003 493.61 257.926C493.593 256.844 493.583 255.81 493.579 254.825L499.85 253.473L502.13 266.516C500.268 267.79 498.078 268.829 495.559 269.635C493.074 270.435 490.412 271.03 487.573 271.419C482.833 272.069 479.085 271.334 476.33 269.214C473.603 267.058 471.893 263.448 471.199 258.385L467.135 228.731L457.314 230.077L456.956 227.464C456.841 226.626 456.943 226.053 457.263 225.747C457.615 225.436 458.171 225.179 458.931 224.976L466.871 222.853L466.951 213.724ZM557.984 235.697C558.577 240.019 558.405 243.919 557.469 247.399C556.561 250.842 555.096 253.819 553.075 256.33C551.053 258.842 548.572 260.874 545.63 262.427C542.685 263.948 539.47 264.947 535.987 265.424C532.375 265.919 528.925 265.801 525.638 265.069C522.383 264.332 519.442 263.01 516.815 261.103C514.22 259.192 512.038 256.698 510.269 253.622C508.501 250.546 507.329 246.911 506.754 242.719C506.184 238.558 506.337 234.759 507.213 231.32C508.089 227.882 509.519 224.893 511.504 222.354C513.516 219.778 515.989 217.681 518.922 216.064C521.886 214.442 525.175 213.383 528.787 212.888C532.367 212.398 535.802 212.535 539.094 213.299C542.386 214.064 545.332 215.418 547.931 217.361C550.526 219.273 552.707 221.767 554.476 224.843C556.245 227.919 557.414 231.537 557.984 235.697ZM517.826 241.152C518.807 248.312 520.691 253.425 523.477 256.494C526.295 259.557 530.204 260.746 535.203 260.061C537.815 259.703 539.981 258.963 541.7 257.84C543.451 256.713 544.788 255.199 545.71 253.299C546.632 251.398 547.172 249.106 547.33 246.423C547.521 243.736 547.377 240.65 546.9 237.167C545.954 230.266 544.069 225.267 541.247 222.171C538.452 219.038 534.539 217.817 529.507 218.506C526.927 218.86 524.78 219.614 523.066 220.769C521.347 221.892 520.026 223.404 519.104 225.304C518.181 227.205 517.623 229.483 517.428 232.138C517.234 234.793 517.366 237.798 517.826 241.152Z" fill="black"/>
<path d="M147.585 353.825L154.771 352.856C155.094 352.812 155.389 352.748 155.656 352.662C155.924 352.577 156.167 352.429 156.385 352.219C156.603 352.009 156.786 351.721 156.934 351.357C157.098 350.99 157.228 350.496 157.325 349.875L158.583 349.705C158.781 351.173 158.956 352.652 159.108 354.143C159.258 355.617 159.372 357.014 159.452 358.334L157.928 358.539C157.656 357.985 157.398 357.535 157.154 357.19C156.911 356.845 156.654 356.584 156.384 356.407C156.129 356.228 155.845 356.127 155.53 356.104C155.212 356.064 154.836 356.074 154.4 356.133L148.013 356.995L149.361 366.987C149.453 367.665 149.563 368.241 149.693 368.716C149.821 369.175 149.966 369.583 150.129 369.938C150.499 370.004 150.895 370.016 151.317 369.975C151.738 369.935 152.183 369.883 152.651 369.82L154.828 369.526L155.285 372.913C153.855 373.024 152.513 373.123 151.261 373.21C150.01 373.313 148.78 373.446 147.57 373.61C146.344 373.775 145.155 373.968 144.002 374.19C142.849 374.411 141.674 374.643 140.475 374.887C140.394 374.898 140.305 374.91 140.209 374.923C140.13 374.95 140.051 374.969 139.97 374.98L139.513 371.593L141.666 371.302C142.134 371.239 142.576 371.171 142.994 371.099C143.411 371.026 143.789 370.909 144.129 370.748C144.286 370.087 144.289 369.199 144.139 368.086L141.086 345.464C140.927 344.287 140.678 343.409 140.337 342.831C139.997 342.745 139.64 342.719 139.267 342.753C138.894 342.787 138.498 342.833 138.078 342.889L135.199 343.278L134.846 340.665C136.768 340.176 139.123 339.677 141.912 339.169C144.717 338.659 147.927 338.16 151.54 337.673L162.185 336.236C162.54 337.404 162.83 338.399 163.056 339.223C163.28 340.03 163.463 340.712 163.603 341.268C163.758 341.805 163.864 342.226 163.922 342.53C163.995 342.832 164.05 343.055 164.086 343.198L160.573 343.82C160.529 343.497 160.417 343.028 160.235 342.412C160.067 341.778 159.805 341.115 159.449 340.424C158.882 340.238 158.116 340.16 157.152 340.192C156.203 340.222 154.946 340.342 153.382 340.553C153.188 340.579 152.931 340.622 152.611 340.682C152.304 340.723 151.87 340.79 151.308 340.882C150.759 340.956 150.052 341.068 149.185 341.218C148.316 341.352 147.239 341.522 145.953 341.728L147.585 353.825ZM196.639 354.227C196.931 356.388 196.841 358.338 196.369 360.077C195.912 361.797 195.176 363.284 194.163 364.538C193.15 365.792 191.907 366.805 190.434 367.579C188.96 368.336 187.352 368.832 185.61 369.067C183.803 369.311 182.078 369.248 180.436 368.879C178.809 368.507 177.34 367.843 176.028 366.887C174.733 365.928 173.644 364.679 172.763 363.139C171.882 361.6 171.3 359.781 171.017 357.684C170.736 355.604 170.816 353.704 171.258 351.986C171.699 350.267 172.418 348.774 173.413 347.507C174.422 346.221 175.66 345.175 177.128 344.369C178.612 343.562 180.257 343.036 182.064 342.792C183.854 342.55 185.572 342.622 187.217 343.008C188.862 343.394 190.334 344.074 191.631 345.048C192.927 346.007 194.015 347.256 194.896 348.796C195.777 350.335 196.358 352.146 196.639 354.227ZM176.554 356.912C177.037 360.493 177.974 363.052 179.364 364.589C180.77 366.124 182.723 366.722 185.223 366.385C186.53 366.209 187.613 365.841 188.474 365.281C189.351 364.719 190.021 363.964 190.484 363.014C190.947 362.065 191.219 360.92 191.301 359.578C191.399 358.235 191.33 356.692 191.095 354.95C190.629 351.498 189.692 348.997 188.284 347.446C186.89 345.877 184.935 345.262 182.418 345.602C181.128 345.776 180.054 346.151 179.195 346.726C178.335 347.286 177.673 348.041 177.21 348.99C176.746 349.939 176.465 351.078 176.365 352.405C176.265 353.732 176.328 355.235 176.554 356.912ZM227.754 350.028C228.045 352.189 227.955 354.139 227.484 355.878C227.026 357.598 226.291 359.086 225.277 360.339C224.264 361.593 223.021 362.606 221.549 363.38C220.074 364.137 218.466 364.633 216.724 364.868C214.918 365.112 213.193 365.049 211.55 364.68C209.923 364.308 208.454 363.644 207.142 362.688C205.847 361.729 204.759 360.48 203.878 358.94C202.996 357.401 202.414 355.582 202.131 353.485C201.85 351.405 201.931 349.505 202.372 347.787C202.814 346.068 203.532 344.575 204.527 343.308C205.536 342.022 206.774 340.976 208.242 340.171C209.726 339.363 211.372 338.837 213.178 338.593C214.969 338.351 216.686 338.423 218.332 338.809C219.977 339.195 221.448 339.875 222.746 340.849C224.041 341.808 225.129 343.057 226.011 344.597C226.892 346.137 227.473 347.947 227.754 350.028ZM207.669 352.713C208.152 356.294 209.088 358.853 210.478 360.39C211.884 361.925 213.837 362.523 216.338 362.186C217.644 362.01 218.728 361.642 219.588 361.082C220.465 360.52 221.135 359.765 221.598 358.816C222.061 357.866 222.334 356.721 222.415 355.379C222.513 354.036 222.445 352.493 222.21 350.751C221.744 347.299 220.807 344.798 219.399 343.247C218.004 341.678 216.049 341.063 213.533 341.403C212.242 341.577 211.168 341.952 210.31 342.528C209.449 343.087 208.787 343.842 208.324 344.791C207.861 345.74 207.579 346.879 207.479 348.206C207.379 349.534 207.442 351.036 207.669 352.713ZM252.924 350.893C252.628 348.699 252.324 346.63 252.013 344.684C251.717 342.737 251.388 340.844 251.024 339.004C250.599 338.651 250.106 338.348 249.547 338.095C248.987 337.842 248.41 337.64 247.815 337.491C247.217 337.325 246.613 337.226 246.001 337.194C245.403 337.143 244.838 337.153 244.305 337.225C243.047 337.395 242.016 337.789 241.213 338.406C240.409 339.024 239.787 339.831 239.347 340.826C238.922 341.82 238.668 342.979 238.584 344.304C238.517 345.627 238.588 347.071 238.799 348.635C239.261 352.055 240.166 354.503 241.515 355.98C242.878 357.438 244.688 358.015 246.947 357.71C247.737 357.604 248.47 357.373 249.144 357.02C249.833 356.647 250.434 356.172 250.948 355.594C251.475 354.997 251.907 354.306 252.245 353.522C252.58 352.721 252.807 351.845 252.924 350.893ZM258.253 352.046C258.378 352.965 258.525 353.75 258.694 354.401C258.862 355.035 259.035 355.586 259.213 356.055L263.399 355.49L263.68 357.571C262.886 357.892 261.972 358.179 260.939 358.434C259.921 358.686 258.784 358.897 257.526 359.067C256.961 359.143 256.467 359.193 256.043 359.217C255.622 359.258 255.264 359.224 254.97 359.116C254.677 359.008 254.436 358.81 254.25 358.523C254.077 358.218 253.952 357.775 253.873 357.194L253.717 356.033C253.276 356.782 252.757 357.444 252.161 358.017C251.579 358.572 250.946 359.051 250.262 359.456C249.577 359.86 248.848 360.18 248.075 360.416C247.321 360.665 246.548 360.844 245.758 360.95C244.274 361.151 242.843 361.073 241.464 360.717C240.102 360.359 238.857 359.714 237.73 358.782C236.618 357.848 235.673 356.621 234.892 355.1C234.112 353.579 233.58 351.762 233.295 349.649C233.001 347.472 232.99 345.502 233.261 343.741C233.53 341.964 234.054 340.432 234.833 339.144C235.626 337.838 236.66 336.795 237.934 336.016C239.222 335.218 240.729 334.702 242.455 334.469C244.117 334.245 245.638 334.319 247.018 334.691C248.413 335.045 249.714 335.682 250.922 336.603L249.557 326.49C249.444 325.651 249.293 324.957 249.104 324.408C248.784 324.352 248.451 324.315 248.103 324.297C247.772 324.276 247.389 324.294 246.953 324.353L244.606 324.67L244.322 322.565C245.119 322.26 246.219 321.956 247.623 321.651C249.025 321.331 250.63 321.049 252.436 320.805C252.71 320.768 252.961 320.742 253.189 320.728C253.431 320.695 253.643 320.683 253.825 320.691C253.943 320.955 254.031 321.247 254.091 321.567C254.167 321.885 254.23 322.23 254.28 322.601L258.253 352.046ZM289.988 338.205C288.891 338.353 287.921 338.648 287.078 339.09C286.232 339.516 285.527 340.071 284.962 340.755C284.413 341.437 284.02 342.237 283.783 343.156C283.56 344.057 283.522 345.055 283.67 346.152C283.801 347.12 284.059 347.997 284.444 348.782C284.827 349.552 285.365 350.194 286.059 350.708C286.766 351.203 287.635 351.554 288.664 351.76C289.692 351.95 290.907 351.95 292.31 351.761C293.439 351.609 294.467 351.314 295.394 350.877C296.318 350.424 297.083 349.828 297.69 349.089C298.312 348.348 298.751 347.459 299.005 346.423C299.274 345.369 299.315 344.156 299.13 342.785C299.032 342.059 298.923 341.368 298.801 340.711C298.679 340.054 298.549 339.455 298.411 338.916L297.973 337.127L289.988 338.205ZM307.997 332.547L308.905 339.273L307.38 339.479C307.087 338.763 306.813 338.192 306.558 337.767C306.317 337.323 306.059 336.988 305.782 336.763C305.505 336.538 305.207 336.397 304.888 336.342C304.568 336.286 304.191 336.288 303.755 336.347L302.061 336.575C302.375 337.683 302.694 338.888 303.017 340.191C303.355 341.476 303.612 342.771 303.788 344.078C303.984 345.529 303.869 346.867 303.443 348.091C303.031 349.296 302.33 350.368 301.339 351.306C300.365 352.242 299.115 353.019 297.589 353.635C296.065 354.268 294.303 354.719 292.303 354.989C289.932 355.309 287.891 355.338 286.18 355.076C284.486 354.812 283.072 354.313 281.938 353.579C280.804 352.846 279.922 351.905 279.291 350.759C278.674 349.594 278.265 348.269 278.065 346.785C277.934 345.818 277.961 344.861 278.146 343.917C278.328 342.956 278.683 342.054 279.21 341.211C279.736 340.368 280.429 339.601 281.289 338.911C282.162 338.201 283.209 337.625 284.43 337.181L284.414 337.06C283.381 336.953 282.431 336.728 281.564 336.385C280.712 336.04 279.96 335.575 279.306 334.99C278.652 334.405 278.116 333.714 277.696 332.916C277.274 332.103 276.992 331.172 276.851 330.123C276.677 328.833 276.751 327.616 277.073 326.472C277.395 325.328 277.971 324.306 278.802 323.406C279.649 322.503 280.753 321.738 282.114 321.111C283.474 320.484 285.106 320.042 287.01 319.785C288.171 319.628 289.295 319.559 290.381 319.576C291.468 319.594 292.472 319.672 293.394 319.81C294.33 319.93 295.156 320.09 295.873 320.289C296.589 320.488 297.167 320.689 297.605 320.893L297.935 327.721L294.959 328.123C294.452 327.042 293.958 326.123 293.478 325.367C292.996 324.594 292.479 323.982 291.925 323.532C291.386 323.062 290.777 322.75 290.099 322.595C289.419 322.424 288.635 322.399 287.748 322.519C286.571 322.677 285.585 322.983 284.792 323.435C283.997 323.871 283.365 324.416 282.895 325.07C282.438 325.707 282.132 326.421 281.977 327.214C281.821 328.007 281.8 328.823 281.913 329.662C282.022 330.468 282.272 331.231 282.665 331.95C283.056 332.653 283.589 333.262 284.267 333.779C284.942 334.279 285.755 334.645 286.706 334.878C287.674 335.109 288.786 335.14 290.044 334.97L307.997 332.547ZM334.16 348.429C332.869 348.603 331.591 348.808 330.326 349.045C329.06 349.281 327.781 349.536 326.487 349.809L326.027 346.398L328.204 346.104C328.672 346.041 329.115 345.973 329.532 345.9C329.949 345.827 330.327 345.711 330.667 345.55C330.811 344.791 330.8 343.799 330.635 342.573L327.736 321.088C327.638 320.363 327.519 319.73 327.381 319.19C327.24 318.634 327.082 318.13 326.906 317.678C326.533 317.596 326.136 317.576 325.715 317.617C325.291 317.641 324.845 317.685 324.378 317.748L321.886 318.084L321.504 315.253C323.66 314.683 326.123 314.129 328.892 313.591C331.66 313.053 334.827 312.544 338.392 312.063C340.021 311.843 341.602 311.753 343.134 311.792C344.665 311.816 346.112 312.014 347.477 312.389C348.841 312.763 350.109 313.331 351.279 314.093C352.449 314.855 353.496 315.855 354.418 317.093C355.355 318.314 356.147 319.8 356.794 321.552C357.439 323.288 357.92 325.334 358.238 327.688C358.608 330.431 358.616 332.803 358.262 334.805C357.906 336.791 357.249 338.497 356.292 339.924C355.351 341.348 354.131 342.531 352.632 343.473C351.15 344.412 349.448 345.191 347.528 345.812C345.625 346.43 343.542 346.941 341.281 347.345C339.017 347.732 336.644 348.094 334.16 348.429ZM336.289 345.038C336.551 345.035 336.803 345.017 337.045 344.985C337.287 344.952 337.529 344.919 337.771 344.887C339.61 344.639 341.285 344.331 342.795 343.962C344.304 343.578 345.643 343.102 346.815 342.533C347.984 341.948 348.982 341.247 349.808 340.429C350.647 339.593 351.302 338.602 351.771 337.455C352.24 336.307 352.53 334.987 352.641 333.494C352.749 331.985 352.673 330.263 352.412 328.327C352.044 325.601 351.486 323.352 350.738 321.581C350.003 319.791 349.052 318.401 347.883 317.409C346.715 316.417 345.324 315.783 343.71 315.508C342.112 315.231 340.265 315.234 338.168 315.517C337.039 315.67 335.96 315.832 334.933 316.003C333.905 316.175 333.068 316.304 332.423 316.391L336.289 345.038ZM372.006 323.835C372.475 322.803 372.945 321.844 373.417 320.959C373.889 320.075 374.416 319.297 374.999 318.627C375.598 317.955 376.279 317.403 377.042 316.972C377.805 316.54 378.711 316.254 379.759 316.113C380.759 315.978 381.528 315.956 382.066 316.048C382.604 316.139 383.021 316.247 383.317 316.371L383.613 323.131L381.436 323.425L380.378 319.971C379.936 319.981 379.592 319.986 379.346 319.987C379.099 319.987 378.888 319.999 378.71 320.023C377.952 320.126 377.193 320.466 376.434 321.045C375.688 321.605 375.029 322.318 374.456 323.184C373.881 324.034 373.443 324.988 373.142 326.047C372.84 327.089 372.76 328.143 372.904 329.208L374.004 337.361C374.096 338.039 374.188 338.601 374.281 339.048C374.372 339.479 374.526 339.828 374.743 340.095C374.975 340.359 375.296 340.545 375.705 340.654C376.13 340.761 376.713 340.822 377.454 340.837L377.946 342.84C376.772 342.9 375.704 342.962 374.744 343.026C373.786 343.106 372.847 343.208 371.928 343.332C371.057 343.45 370.181 343.593 369.3 343.761C368.436 343.927 367.519 344.132 366.551 344.378L366.373 342.333C367.118 342.134 367.683 341.942 368.069 341.759C368.471 341.573 368.745 341.347 368.889 341.082C369.05 340.813 369.122 340.492 369.104 340.116C369.086 339.741 369.038 339.263 368.96 338.682L366.847 323.028C366.808 322.738 366.754 322.458 366.685 322.188C366.629 321.9 366.544 321.632 366.428 321.385C366.187 321.303 365.933 321.247 365.667 321.217C365.4 321.187 365.081 321.197 364.71 321.247L361.976 321.616L361.663 319.294C361.85 319.219 362.133 319.132 362.514 319.031C362.892 318.914 363.328 318.798 363.822 318.682C364.331 318.564 364.874 318.45 365.451 318.339C366.043 318.226 366.646 318.129 367.259 318.046C368.033 317.941 368.764 317.884 369.453 317.873C370.155 317.844 370.744 317.888 371.219 318.004L372.006 323.835ZM387.633 306.551C387.494 305.518 387.689 304.654 388.219 303.959C388.766 303.261 389.523 302.847 390.491 302.716C390.974 302.651 391.429 302.672 391.854 302.778C392.279 302.885 392.656 303.064 392.986 303.316C393.315 303.567 393.589 303.891 393.807 304.289C394.041 304.684 394.193 305.14 394.262 305.656C394.328 306.14 394.3 306.604 394.179 307.047C394.072 307.472 393.894 307.857 393.645 308.203C393.394 308.532 393.078 308.805 392.696 309.021C392.315 309.236 391.882 309.377 391.398 309.442C390.914 309.508 390.46 309.487 390.035 309.38C389.61 309.273 389.225 309.095 388.879 308.846C388.547 308.579 388.274 308.254 388.058 307.873C387.84 307.475 387.698 307.035 387.633 306.551ZM402.256 338.968C401.446 339.291 400.514 339.565 399.46 339.789C398.408 340.03 397.229 340.238 395.923 340.414C395.568 340.462 395.201 340.479 394.821 340.464C394.46 340.464 394.124 340.411 393.814 340.305C393.502 340.183 393.232 340.005 393.003 339.774C392.789 339.523 392.652 339.18 392.594 338.745C392.487 337.954 392.406 337.169 392.349 336.388C392.309 335.605 392.221 334.706 392.084 333.689L390.252 320.116C390.209 319.794 390.148 319.465 390.07 319.131C390.008 318.794 389.926 318.493 389.825 318.228C389.211 318.064 388.502 318.037 387.695 318.146L385.348 318.462L385.035 316.14C385.222 316.065 385.514 315.976 385.91 315.874C386.321 315.753 386.781 315.633 387.291 315.515C387.816 315.395 388.384 315.277 388.992 315.162C389.601 315.047 390.212 314.948 390.825 314.866C391.599 314.761 392.33 314.703 393.018 314.693C393.721 314.664 394.31 314.707 394.785 314.824L397.276 333.284C397.401 334.204 397.548 334.989 397.717 335.639C397.885 336.273 398.058 336.825 398.236 337.294L401.72 336.823L402.256 338.968ZM429.939 328.876C430.063 329.796 430.21 330.581 430.38 331.231C430.548 331.866 430.721 332.417 430.899 332.886L434.383 332.415L434.94 334.533C433.365 335.156 431.239 335.648 428.562 336.01C428.223 336.055 427.872 336.07 427.508 336.053C427.147 336.053 426.81 335.991 426.498 335.869C426.186 335.747 425.916 335.57 425.687 335.338C425.473 335.088 425.336 334.745 425.277 334.309C425.171 333.519 425.086 332.709 425.023 331.88C424.959 331.035 424.858 330.104 424.721 329.088L423.539 320.33C423.367 319.055 423.109 317.998 422.766 317.157C422.436 316.298 422.041 315.621 421.58 315.125C421.135 314.626 420.639 314.299 420.092 314.143C419.56 313.969 419.003 313.921 418.422 313.999C417.777 314.086 417.116 314.298 416.439 314.636C415.776 314.955 415.14 315.353 414.531 315.83C413.922 316.306 413.36 316.833 412.847 317.412C412.332 317.974 411.907 318.541 411.574 319.111L413.301 331.91C413.397 332.62 413.492 333.206 413.588 333.67C413.681 334.117 413.836 334.474 414.053 334.74C414.285 335.005 414.607 335.199 415.018 335.324C415.427 335.433 416.002 335.495 416.743 335.51L417.214 337.541C416.282 337.568 415.295 337.619 414.254 337.694C413.231 337.783 412.188 337.899 411.123 338.043C410.155 338.173 409.223 338.324 408.326 338.494C407.43 338.664 406.602 338.858 405.843 339.075L405.638 337.009C406.383 336.81 406.948 336.619 407.334 336.435C407.736 336.25 408.009 336.024 408.154 335.758C408.315 335.49 408.387 335.168 408.369 334.793C408.351 334.418 408.303 333.94 408.225 333.359L406.138 317.898C406.095 317.576 406.036 317.264 405.962 316.961C405.903 316.641 405.822 316.348 405.721 316.083C405.477 315.984 405.215 315.929 404.935 315.918C404.668 315.888 404.349 315.898 403.978 315.948L401.244 316.317L400.931 313.994C401.118 313.92 401.41 313.831 401.806 313.728C402.201 313.61 402.653 313.491 403.162 313.373C403.672 313.255 404.223 313.14 404.816 313.027C405.424 312.912 406.035 312.813 406.648 312.73C407.422 312.626 408.153 312.568 408.842 312.557C409.544 312.528 410.125 312.573 410.584 312.692L410.996 315.74C411.528 315.061 412.126 314.438 412.788 313.872C413.467 313.304 414.18 312.806 414.927 312.377C415.69 311.945 416.472 311.593 417.273 311.321C418.071 311.033 418.866 310.835 419.656 310.728C420.672 310.591 421.66 310.606 422.618 310.772C423.593 310.936 424.478 311.285 425.272 311.818C426.065 312.335 426.737 313.057 427.289 313.985C427.839 314.896 428.206 316.029 428.388 317.384L429.939 328.876ZM438.639 332.556C439.368 332.359 439.926 332.168 440.312 331.985C440.697 331.802 440.972 331.584 441.135 331.332C441.296 331.064 441.368 330.75 441.353 330.391C441.335 330.016 441.29 329.562 441.218 329.03L437.509 301.544C437.45 301.109 437.378 300.692 437.291 300.293C437.218 299.875 437.114 299.471 436.979 299.078C436.692 299.019 436.375 298.979 436.027 298.96C435.68 298.942 435.288 298.962 434.853 299.02L432.506 299.337L432.222 297.232C432.66 297.074 433.189 296.913 433.807 296.747C434.441 296.58 435.134 296.42 435.886 296.27C436.635 296.103 437.418 295.94 438.234 295.78C439.066 295.619 439.892 295.466 440.71 295.323C441.29 295.606 441.675 295.965 441.865 296.399C442.069 296.815 442.213 297.337 442.298 297.966L445.345 320.54L450.899 313.508C452.501 311.502 453.276 310.248 453.225 309.746C453.186 309.455 452.86 309.352 452.247 309.434L451.933 307.112L462.409 305.698L462.723 308.02L461.804 308.145C461.465 308.19 461.108 308.288 460.734 308.437C460.36 308.586 459.998 308.758 459.646 308.953C459.295 309.148 458.971 309.364 458.674 309.601C458.392 309.82 458.166 310.031 457.996 310.235L450.696 318.759L461.023 327.736C461.229 327.922 461.498 328.091 461.831 328.243C462.161 328.379 462.522 328.495 462.912 328.59C463.303 328.685 463.697 328.747 464.095 328.775C464.509 328.802 464.894 328.791 465.248 328.743C465.523 328.706 465.753 328.65 465.94 328.576L466.575 330.904C465.576 330.924 464.58 330.968 463.587 331.036C462.613 331.119 461.618 331.228 460.601 331.365C459.585 331.503 458.58 331.663 457.587 331.846C456.612 332.043 455.598 332.262 454.547 332.503L454.259 330.374C454.63 330.324 454.919 330.268 455.124 330.208C455.329 330.147 455.418 330.012 455.389 329.802C455.171 329.52 454.909 329.227 454.606 328.923C454.302 328.619 453.944 328.281 453.533 327.91L446.8 321.649L445.642 322.742L446.314 327.726C446.401 328.371 446.491 328.909 446.582 329.34C446.687 329.753 446.847 330.093 447.064 330.359C447.295 330.607 447.614 330.786 448.023 330.895C448.43 330.988 448.996 331.043 449.721 331.06L450.119 333.1C448.993 333.154 447.99 333.207 447.111 333.26C446.233 333.329 445.351 333.424 444.464 333.543C443.544 333.667 442.628 333.816 441.715 333.988C440.818 334.158 439.861 334.37 438.844 334.622L438.639 332.556Z" fill="black"/>
</svg>
